# xmcd
#
# Track frame offsets: 
#        150
#        12276
#        25821
#        45542
#        68465
#        83420
#        95257
#        108784
#        130992
#        148426
#        169088
#        180659
#        200463
#        217426
#        233917
#
# Disc length: 3302 seconds
#
# Revision: 0
# Processed by: cddbd v1.5.2PL0 Copyright (c) Steve Scherf et al.
# Submitted via: ExactAudioCopyFreeDBPlugin 1.0
#
DISCID=ca0ce40f
DTITLE=Wentus Blues Band - Throwback
DYEAR=2017
DGENRE=Blues
TTITLE0=Wrapped Up In Love - Carey Bell
TTITLE1=Future Blues - Canned Heat
TTITLE2=Rainbow - Eddie Kirkland
TTITLE3=Let Me Get Over It - Sven Zetterberg
TTITLE4=Frog Leg Man - Rock Bottom
TTITLE5=Done Somebody Wrong - Eddie Kirkland
TTITLE6=Feel So Young - Hungry John
TTITLE7=Hard Working Woman - Carey Bell
TTITLE8=Don't Let Nobody Drag Your Spirit Down - Eric Bibb
TTITLE9=I Think You Need A Shrink - Sven Zetterberg
TTITLE10=Thirty Dirty Women - Louisiana Red
TTITLE11=Fixin' To Die - Phil Guy
TTITLE12=Time Was - Canned Heat
TTITLE13=Last Of The Blues Singers - Phil Guy
TTITLE14=Red's Dream - Louisiana Red
EXTD=
EXTT0=
EXTT1=
EXTT2=
EXTT3=
EXTT4=
EXTT5=
EXTT6=
EXTT7=
EXTT8=
EXTT9=
EXTT10=
EXTT11=
EXTT12=
EXTT13=
EXTT14=
PLAYORDER=
